<svg height="384pt" viewBox="-40 0 384 384" width="384pt" xmlns="http://www.w3.org/2000/svg"><path d="m40.6875 319.433594c.074219.574218.152344 1.140625.289062 1.695312.085938.351563.207032.6875.320313 1.03125.214844.6875.457031 1.367188.765625 2.015625.105469.222657.242188.441407.363281.65625.398438.742188.832031 1.449219 1.335938 2.113281.046875.0625.078125.132813.125.199219 28.707031 36.671875 67.105469 56.855469 108.113281 56.855469h.015625.007813.007812c83.800781-.023438 151.96875-86.144531 151.96875-192 0-105.871094-68.183594-192-152-192s-152 86.128906-152 192c0 24.3125 3.550781 48.0625 10.558594 70.59375 2.625 8.445312 11.585937 13.167969 20.035156 10.527344 8.4375-2.625 13.148438-11.59375 10.519531-20.03125-6.050781-19.449219-9.113281-40-9.113281-61.089844 0-79.695312 43.976562-145.777344 101.238281-157.847656l-5.671875 39.6875c-5.199218 36.398437-1.796875 74.070312 9.824219 108.945312 9.363281 28.09375 12.585937 58.503906 9.320313 87.917969l-8.894532 80.039063c-25.679687-4.070313-49.695312-19.023438-68.746094-43.335938-.199218-.246094-.4375-.4375-.644531-.671875-.371093-.414063-.738281-.804687-1.136719-1.183594-.394531-.359375-.792968-.679687-1.210937-1-.40625-.304687-.8125-.589843-1.246094-.863281-.457031-.28125-.921875-.527344-1.390625-.75-.457031-.226562-.921875-.425781-1.402344-.609375-.496093-.183594-.992187-.335937-1.503906-.464844-.488281-.128906-.976562-.238281-1.480468-.328125-.558594-.085937-1.117188-.136718-1.6875-.167968-.304688-.015626-.589844-.085938-.902344-.085938-.183594 0-.351563.046875-.535156.054688-.578126.015624-1.136719.089843-1.707032.175781-.488281.074219-.976562.136719-1.445312.25-.503906.117187-.992188.285156-1.480469.453125-.511719.175781-1.023437.351562-1.503906.578125-.425781.191406-.824219.4375-1.242188.671875-.519531.296875-1.023437.597656-1.503906.949218-.144531.105469-.292969.171876-.4375.28125-.234375.183594-.410156.410157-.625.601563-.441406.382813-.863281.773437-1.265625 1.207031-.335938.367188-.640625.753906-.941406 1.144532-.320313.421874-.625.855468-.914063 1.3125-.261719.4375-.503906.878906-.726562 1.335937-.234375.472656-.441407.941406-.625 1.4375-.183594.488281-.328125.976563-.457031 1.480469-.125.496094-.246094.984375-.328126 1.496094-.085937.5625-.132812 1.121093-.167968 1.679687-.015625.304687-.085938.59375-.085938.898437v.078126c0 .175781.046875.34375.054688.519531.023437.511719.089844 1.023437.160156 1.546875zm231.3125-127.433594c0 80.007812-44.3125 146.289062-101.902344 157.976562l8.414063-75.738281c3.785156-33.992187.054687-69.109375-10.757813-101.566406-10.066406-30.183594-13-62.800781-8.507812-94.304687l6.457031-45.238282c59.738281 9.109375 106.296875 76.839844 106.296875 158.871094zm0 0"/></svg>